HIERARCHY
ROOT Hips
{
	OFFSET 0.00000 0.00000 0.00000
	CHANNELS 6 Xposition Yposition Zposition Zrotation Yrotation Xrotation 
	JOINT LHipJoint
	{
		OFFSET 0 0 0
		CHANNELS 3 Zrotation Yrotation Xrotation
		JOINT LeftUpLeg
		{
			OFFSET 1.57358 -1.76629 0.73362
			CHANNELS 3 Zrotation Yrotation Xrotation
			JOINT LeftLeg
			{
				OFFSET 2.40600 -6.61045 0.00000
				CHANNELS 3 Zrotation Yrotation Xrotation
				JOINT LeftFoot
				{
					OFFSET 2.66168 -7.31291 0.00000
					CHANNELS 3 Zrotation Yrotation Xrotation
					JOINT LeftToeBase
					{
						OFFSET 0.20870 -0.57341 2.12506
						CHANNELS 3 Zrotation Yrotation Xrotation
						End Site
						{
							OFFSET 0.00000 -0.00000 1.10557
						}
					}
				}
			}
		}
	}
	JOINT RHipJoint
	{
		OFFSET 0 0 0
		CHANNELS 3 Zrotation Yrotation Xrotation
		JOINT RightUpLeg
		{
			OFFSET -1.49299 -1.76629 0.73362
			CHANNELS 3 Zrotation Yrotation Xrotation
			JOINT RightLeg
			{
				OFFSET -2.43663 -6.69460 0.00000
				CHANNELS 3 Zrotation Yrotation Xrotation
				JOINT RightFoot
				{
					OFFSET -2.62959 -7.22474 0.00000
					CHANNELS 3 Zrotation Yrotation Xrotation
					JOINT RightToeBase
					{
						OFFSET -0.25784 -0.70841 2.21862
						CHANNELS 3 Zrotation Yrotation Xrotation
						End Site
						{
							OFFSET -0.00000 -0.00000 1.16452
						}
					}
				}
			}
		}
	}
	JOINT LowerBack
	{
		OFFSET 0 0 0
		CHANNELS 3 Zrotation Yrotation Xrotation
		JOINT Spine
		{
			OFFSET -0.00034 2.12399 -0.25450
			CHANNELS 3 Zrotation Yrotation Xrotation
			JOINT Spine1
			{
				OFFSET 0.05594 2.14379 -0.03318
				CHANNELS 3 Zrotation Yrotation Xrotation
				JOINT Neck
				{
					OFFSET 0 0 0
					CHANNELS 3 Zrotation Yrotation Xrotation
					JOINT Neck1
					{
						OFFSET -0.09835 1.62725 0.24211
						CHANNELS 3 Zrotation Yrotation Xrotation
						JOINT Head
						{
							OFFSET 0.10849 1.66041 -0.22648
							CHANNELS 3 Zrotation Yrotation Xrotation
							End Site
							{
								OFFSET 0.04385 1.68267 -0.10541
							}
						}
					}
				}
				JOINT LeftShoulder
				{
					OFFSET 0 0 0
					CHANNELS 3 Zrotation Yrotation Xrotation
					JOINT LeftArm
					{
						OFFSET 3.29108 0.79398 -0.68179
						CHANNELS 3 Zrotation Yrotation Xrotation
						JOINT LeftForeArm
						{
							OFFSET 5.15310 -0.00000 -0.00000
							CHANNELS 3 Zrotation Yrotation Xrotation
							JOINT LeftHand
							{
								OFFSET 3.75138 -0.00000 -0.00000
								CHANNELS 3 Zrotation Yrotation Xrotation
								JOINT LeftFingerBase
								{
									OFFSET 0 0 0
									CHANNELS 3 Zrotation Yrotation Xrotation
									JOINT LeftHandIndex1
									{
										OFFSET 0.52917 -0.00000 0.00000
										CHANNELS 3 Zrotation Yrotation Xrotation
										End Site
										{
											OFFSET 0.42663 -0.00000 0.00000
										}
									}
								}
								JOINT LThumb
								{
									OFFSET 0 0 0
									CHANNELS 3 Zrotation Yrotation Xrotation
									End Site
									{
										OFFSET 0.43315 -0.00000 0.43315
									}
								}
							}
						}
					}
				}
				JOINT RightShoulder
				{
					OFFSET 0 0 0
					CHANNELS 3 Zrotation Yrotation Xrotation
					JOINT RightArm
					{
						OFFSET -3.07414 1.06285 -0.44338
						CHANNELS 3 Zrotation Yrotation Xrotation
						JOINT RightForeArm
						{
							OFFSET -5.29613 -0.00000 0.00000
							CHANNELS 3 Zrotation Yrotation Xrotation
							JOINT RightHand
							{
								OFFSET -3.76144 -0.00000 -0.00000
								CHANNELS 3 Zrotation Yrotation Xrotation
								JOINT RightFingerBase
								{
									OFFSET 0 0 0
									CHANNELS 3 Zrotation Yrotation Xrotation
									JOINT RightHandIndex1
									{
										OFFSET -0.74732 -0.00000 0.00000
										CHANNELS 3 Zrotation Yrotation Xrotation
										End Site
										{
											OFFSET -0.60251 -0.00000 0.00000
										}
									}
								}
								JOINT RThumb
								{
									OFFSET 0 0 0
									CHANNELS 3 Zrotation Yrotation Xrotation
									End Site
									{
										OFFSET -0.61171 -0.00000 0.61171
									}
								}
							}
						}
					}
				}
			}
		}
	}
}
MOTION
Frames: 14
Frame Time: .0083333
-8.514 17.5778 -35.3657 0 0 0 0 0 0 -21 0 0 0 0 0 0 0 0 0 0 0 0 0 0 21 0 0 0 0 0 0 0 0 0 0 0 0 0 0 0 0 0 0 0 0 0 0 -16 0 0 21 0 0 11 0 0 0 -8 0 0 0 0 0 0 0 0 0 0 0 0 0 0 0 0 0 0 0 0 8 0 0 0 0 0 0 0 0 0 0 0 0 0 0 0 0 0
-8.5140 17.5778 -35.3657 -1.7542 -11.2656 2.1799 0.0000 0.0000 0.0000 -16.2573 -1.0525 -22.5020 12.2412 18.4908 66.7514 -0.0766 -5.1770 3.6645 0.4890 -4.4838 -12.4419 0.0000 0.0000 0.0000 26.6405 16.7691 -9.7185 -1.8422 -8.5293 24.3338 -0.1843 -0.9824 -8.5288 -0.0275 -1.0699 2.9412 -2.5875 -0.4446 2.7996 5.3848 -0.5784 -0.8060 7.1034 -0.2161 -2.3265 -14.5031 0.5722 -4.2861 5.6461 1.3296 17.5665 4.2865 0.1114 5.8996 -0.0000 0.0000 0.0000 -92.9481 4.7448 16.0722 18.9909 -29.4073 -5.0264 -0.0000 -0.0000 6.1807 16.7867 26.0530 7.5473 -7.1250 0.0000 -0.0000 -14.2977 56.4541 -4.0735 -0.0000 0.0000 0.0000 84.3666 -5.4349 10.2932 -13.1195 21.4620 -2.4968 0.0000 0.0000 8.5534 -15.2015 13.6098 -3.6584 7.1250 -0.0000 -0.0000 8.3539 -15.9938 5.7914
-8.5112 17.5795 -35.1303 -1.7421 -10.3780 1.8565 0.0000 0.0000 0.0000 -16.1490 -2.2056 -23.2799 12.1367 18.4478 66.4214 -0.0441 -3.7315 1.1104 0.6153 -5.0203 -13.9663 0.0000 0.0000 0.0000 26.7685 15.6157 -8.7796 -1.8411 -8.5269 24.3263 -0.2253 -1.2303 -9.5008 -0.0232 -0.9840 2.7047 -2.8292 1.0918 6.0949 5.0832 1.4821 -1.6282 6.7937 0.9189 -5.3444 -12.6199 -1.4608 -7.6332 4.8884 -1.0666 20.1011 3.6267 -1.0235 7.5460 -0.0000 0.0000 0.0000 -92.0547 4.9844 21.4174 18.4312 -28.7058 -4.7545 -0.0000 -0.0000 6.3151 17.4872 27.6056 8.3059 -7.1250 0.0000 -0.0000 -14.4463 58.1257 -4.7034 -0.0000 0.0000 0.0000 85.3343 -6.0567 7.1049 -13.6864 22.2846 -2.7080 0.0000 0.0000 8.2950 -14.5520 14.8514 -3.8066 7.1250 -0.0000 -0.0000 8.8003 -14.7835 6.3399
-8.5221 17.5791 -34.9018 -1.7767 -10.0569 1.6778 0.0000 0.0000 0.0000 -15.9449 -2.8221 -24.2485 11.9757 18.3803 65.9117 -0.0449 -3.7582 1.3738 0.1116 -2.1540 -5.9315 0.0000 0.0000 0.0000 26.9762 14.9221 -7.7446 -1.8230 -8.4873 24.2044 -0.2814 -1.0336 -10.4495 -0.0588 -1.5653 4.3058 -6.1425 -0.9999 7.4420 8.0073 -1.4662 -3.1834 12.5104 -0.2019 -7.2619 -16.2019 1.1227 -4.4389 3.4390 2.6899 19.9021 3.9706 0.3768 6.6023 -0.0000 -0.0000 0.0000 -98.3308 9.1964 13.7526 18.7202 -29.0695 -4.8942 -0.0000 -0.0000 8.4449 17.1517 28.0309 8.2526 -7.1250 0.0000 -0.0000 -15.0594 58.4668 -5.0330 -0.0000 -0.0000 0.0000 78.9423 -8.1979 17.4434 -14.1016 22.8798 -2.8675 0.0000 0.0000 6.5202 -14.3131 14.1522 -3.5696 7.1250 -0.0000 -0.0000 8.9609 -15.5125 6.3167
-8.5386 17.5756 -34.6755 -2.0948 -10.4970 1.7541 0.0000 0.0000 0.0000 -15.3802 -2.7244 -25.6358 11.8021 18.3057 65.3603 -0.0264 -2.9817 0.2734 0.0066 -0.5259 -1.4451 0.0000 0.0000 0.0000 27.4796 14.8138 -6.8697 -1.8367 -8.5172 24.2964 -0.3288 -0.8203 -11.1605 -0.0663 -1.6618 4.5718 -3.8519 0.5819 6.8596 6.2643 0.7870 -2.3105 8.7889 0.6932 -6.4580 -14.0249 -0.5698 -6.4477 4.4274 0.2785 19.9736 3.8072 -0.5308 7.1845 0.0000 0.0000 0.0000 -94.5529 7.5643 19.4989 17.9566 -28.1016 -4.5288 -0.0000 -0.0000 7.8616 18.0000 26.4005 8.2208 -7.1250 0.0000 -0.0000 -13.2232 57.0504 -3.9512 0.0000 0.0000 0.0000 82.6380 -6.6046 12.9721 -14.5206 23.4740 -3.0324 0.0000 0.0000 7.0377 -14.8629 13.1713 -3.4606 7.1250 -0.0000 -0.0000 8.5866 -16.4670 5.8673
-8.5442 17.5547 -34.4504 -2.5274 -10.3580 1.7038 0.0000 0.0000 0.0000 -14.7174 -3.2439 -26.8037 11.6111 18.2214 64.7507 -0.0008 -1.8898 -1.2498 0.0000 0.0175 0.0481 0.0000 0.0000 0.0000 28.0963 14.4499 -6.1099 -1.8787 -8.6087 24.5788 -0.3472 -1.1598 -11.6120 -0.0046 -0.4370 1.2006 -2.9633 0.6198 6.5908 6.0275 0.9009 -2.1372 7.9801 0.6899 -6.1123 -13.7941 -0.5892 -5.9147 4.7046 0.0844 19.3697 3.8323 -0.5649 6.9048 0.0000 0.0000 0.0000 -94.0561 7.6623 20.1096 17.7661 -27.8566 -4.4394 -0.0000 -0.0000 8.0747 17.9229 27.0751 8.3746 -7.1250 0.0000 -0.0000 -13.6779 57.7000 -4.3060 0.0000 0.0000 0.0000 83.0088 -5.8415 13.5764 -14.7736 23.8298 -3.1339 0.0000 0.0000 6.8663 -15.7493 12.3913 -3.4631 7.1250 -0.0000 -0.0000 7.9761 -17.1978 5.3133
-8.5343 17.5179 -34.2354 -2.4817 -7.6925 1.2029 0.0000 0.0000 0.0000 -14.6297 -6.0098 -27.2671 11.3785 18.1154 64.0047 0.0169 -1.2335 -2.3381 0.0030 0.3510 0.9644 0.0000 0.0000 0.0000 28.2316 12.6066 -5.4630 -1.9204 -8.6982 24.8557 -0.4106 -2.2364 -13.1290 -0.0004 -0.1286 0.3533 -1.2744 0.1241 6.5847 4.9968 0.3070 -1.5039 5.9327 0.2773 -5.3105 -13.0975 -1.2651 -6.8091 5.2234 -0.8997 19.2402 3.8156 -0.9313 7.1039 0.0000 -0.0000 0.0000 -92.4392 6.4811 21.6701 17.2969 -27.2476 -4.2224 -0.0000 -0.0000 8.2680 18.2939 26.6240 8.4273 -7.1250 0.0000 -0.0000 -13.0359 57.3345 -3.9838 0.0000 -0.0000 0.0000 84.4991 -4.0731 13.0066 -15.0479 24.2128 -3.2456 0.0000 0.0000 6.6666 -17.1004 11.3330 -3.4597 7.1250 -0.0000 -0.0000 7.0340 -18.1888 4.5211
-8.5388 17.4568 -34.0474 -2.5625 -2.5247 0.5632 0.0000 0.0000 0.0000 -14.3394 -10.6879 -27.4742 11.1096 17.9883 63.1369 0.0267 -1.1414 -2.8986 0.0103 0.6568 1.8050 0.0000 0.0000 0.0000 28.7166 9.6800 -5.0408 -1.9630 -8.7885 25.1361 -0.5072 -4.3943 -15.7808 -0.0270 -1.0611 2.9170 -1.2965 -2.6250 7.2809 5.6455 -3.3163 -2.1037 7.0991 -1.4855 -5.8870 -14.4835 0.0034 -4.5861 5.1447 0.6861 18.6113 4.1074 -0.2726 6.3633 -0.0000 -0.0000 0.0000 -94.3002 8.3447 18.3541 17.3742 -27.3485 -4.2578 -0.0000 -0.0000 8.1723 18.6457 25.7082 8.3273 -7.1250 0.0000 -0.0000 -12.1861 56.4983 -3.4713 -0.0000 -0.0000 0.0000 82.7679 -4.3192 17.9600 -15.3734 24.6637 -3.3802 0.0000 0.0000 5.6902 -15.4605 11.6307 -3.1915 7.1250 -0.0000 -0.0000 8.1808 -17.9968 5.3075
-8.5405 17.4277 -33.8125 -3.1148 -2.6719 0.4724 0.0000 0.0000 0.0000 -13.6515 -10.9646 -28.2955 10.7250 17.7978 61.8851 0.0538 -0.3609 -4.2660 0.0200 0.9133 2.5103 0.0000 0.0000 0.0000 29.4984 9.4853 -4.0255 -1.9758 -8.8155 25.2200 -0.6216 -4.2913 -17.0719 -0.0608 -1.5913 4.3774 1.4848 -1.4814 6.0914 3.9288 -1.7121 -0.5853 3.4004 -0.8416 -3.9486 -12.4211 -1.5391 -7.1542 6.0348 -1.4686 18.6604 3.9181 -1.0686 7.0178 -0.0000 0.0000 0.0000 -90.8170 5.8108 22.6374 16.8982 -26.7234 -4.0415 -0.0000 -0.0000 7.6615 17.8211 26.6591 8.2076 -7.1250 0.0000 -0.0000 -13.5519 57.2678 -4.1234 -0.0000 0.0000 0.0000 85.9681 -1.6448 14.6075 -15.7501 25.1806 -3.5390 0.0000 0.0000 6.0774 -15.0370 10.8998 -2.9080 7.1250 -0.0000 -0.0000 8.4864 -18.7712 5.3632
-8.5473 17.4020 -33.5850 -3.4957 -2.9839 0.3741 0.0000 0.0000 0.0000 -13.1175 -11.0111 -29.0699 10.2498 17.5480 60.3202 0.0700 0.2303 -5.0872 0.0296 1.1110 3.0542 0.0000 0.0000 0.0000 30.0628 9.1128 -2.9917 -1.9573 -8.7765 25.0986 -0.6776 -4.0368 -17.5354 -0.0534 -1.4912 4.1014 2.0212 -1.7368 5.6059 3.9517 -2.0391 -0.4899 3.1304 -1.0170 -3.5789 -12.6904 -1.0400 -5.9242 6.1980 -0.9277 17.8798 4.0429 -0.8105 6.4970 0.0000 0.0000 0.0000 -91.1657 6.4172 21.3611 16.8095 -26.6059 -4.0016 -0.0000 -0.0000 7.5689 17.1250 28.3025 8.3114 -7.1250 0.0000 -0.0000 -15.2572 58.7251 -5.1962 0.0000 0.0000 0.0000 85.6886 -1.3190 16.9366 -16.2193 25.8171 -3.7410 0.0000 0.0000 5.7860 -14.8698 11.4458 -3.0161 7.1250 -0.0000 -0.0000 8.5957 -18.2247 5.5390
-8.5558 17.3813 -33.3557 -3.8138 -3.2449 0.3340 0.0000 0.0000 0.0000 -12.6513 -11.0416 -29.8148 9.6893 17.2314 58.4449 0.0982 0.6746 -6.2059 0.0022 0.3004 0.8255 0.0000 0.0000 0.0000 30.4992 8.5623 -2.0240 -1.9142 -8.6851 24.8151 -0.7213 -3.7490 -17.8341 -0.0265 -1.0519 2.8916 2.7171 -1.5903 5.2601 3.7000 -1.8404 -0.1076 2.4386 -0.9320 -3.0263 -12.2901 -1.0960 -6.3255 6.2921 -1.0112 17.5262 3.9957 -0.8027 6.4576 -0.0000 -0.0000 0.0000 -90.8216 6.0876 21.5425 16.5400 -26.2474 -3.8817 -0.0000 -0.0000 6.9745 17.7232 27.3819 8.3617 -7.1250 0.0000 -0.0000 -14.0652 57.9582 -4.5191 -0.0000 -0.0000 0.0000 85.9405 -0.2832 17.8680 -16.6560 26.4020 -3.9331 0.0000 0.0000 5.3614 -14.9778 12.4904 -3.3115 7.1250 -0.0000 -0.0000 8.5103 -17.1523 5.6855
-8.5670 17.3548 -33.1352 -4.0537 -3.1919 0.5446 0.0000 0.0000 0.0000 -12.2103 -11.3795 -30.7490 9.0900 16.8653 56.4010 0.1613 1.0480 -8.0433 0.0482 -1.4168 -3.8964 0.0000 0.0000 0.0000 30.8375 8.0819 -1.3985 -1.8764 -8.6038 24.5635 -0.7556 -3.6891 -18.1640 -0.0184 -0.8759 2.4074 3.1208 -1.3288 5.2143 3.5777 -1.4759 -0.0332 2.0541 -0.7566 -2.9450 -12.0326 -1.2984 -6.8821 6.4846 -1.2796 17.3490 3.9941 -0.8880 6.5216 -0.0000 0.0000 0.0000 -90.6522 6.1483 22.4596 16.3409 -25.9806 -3.7940 -0.0000 -0.0000 6.0461 18.7040 27.2477 8.8110 -7.1250 0.0000 -0.0000 -12.9479 58.0413 -4.1778 -0.0000 0.0000 0.0000 85.9831 0.5610 18.1518 -17.0440 26.9158 -4.1072 0.0000 0.0000 5.0673 -15.6100 11.9643 -3.3148 7.1250 -0.0000 -0.0000 8.0744 -17.6450 5.3001
-8.5798 17.3160 -32.9159 -4.2986 -3.4006 0.7763 0.0000 0.0000 0.0000 -11.7421 -11.4236 -31.5874 8.4621 16.4489 54.2107 0.2332 1.2463 -9.6648 0.1163 -2.1989 -6.0555 0.0000 0.0000 0.0000 31.2479 8.0262 -0.5744 -1.8327 -8.5085 24.2695 -0.8159 -3.6687 -18.7744 -0.0287 -1.0931 3.0051 2.9821 -0.9553 5.7339 3.8061 -0.9391 -0.2608 2.3430 -0.4883 -3.4733 -12.0776 -1.5809 -7.5106 6.4904 -1.5870 17.5988 3.9842 -1.0343 6.7439 -0.0000 0.0000 0.0000 -91.0549 6.6351 23.0446 16.2361 -25.8397 -3.7483 -0.0000 -0.0000 5.5495 18.0412 29.5887 9.1366 -7.1250 0.0000 -0.0000 -15.1135 60.1867 -5.6762 -0.0000 0.0000 0.0000 85.4750 0.8781 18.6182 -17.5259 27.5459 -4.3278 0.0000 0.0000 4.8184 -17.0102 10.6372 -3.2321 7.1250 -0.0000 -0.0000 7.0984 -18.9145 4.4482
-8.5950 17.2754 -32.6914 -4.7167 -4.1906 0.7207 0.0000 0.0000 0.0000 -11.1296 -10.8693 -31.9990 7.8051 15.9740 51.8576 0.2754 1.4054 -10.5279 0.0818 -1.8444 -5.0758 0.0000 0.0000 0.0000 31.8949 8.1984 0.7609 -1.7835 -8.3997 23.9347 -0.8735 -3.5561 -19.2859 -0.0315 -1.1455 3.1492 1.1821 -0.7230 8.9699 5.4024 -0.4638 -1.9569 5.1273 -0.1523 -7.0833 -13.1024 -1.5021 -7.7080 5.2773 -1.1048 19.4810 3.8231 -1.0219 7.3634 -0.0000 0.0000 0.0000 -93.9424 9.5364 21.1394 16.2852 -25.9058 -3.7697 -0.0000 -0.0000 6.8343 16.4077 31.1303 8.6558 -7.1250 0.0000 -0.0000 -18.0168 61.2725 -7.2726 -0.0000 0.0000 0.0000 82.6395 -1.1840 21.0651 -18.1418 28.3384 -4.6164 0.0000 0.0000 3.6750 -17.9675 10.0247 -3.2309 7.1250 -0.0000 -0.0000 6.4214 -19.4869 3.9361
